<svg width="35" height="34" viewBox="0 0 35 34" fill="none" xmlns="http://www.w3.org/2000/svg">
<path d="M7.22002 3.76588C7.58668 3.94748 8.18439 4.21194 8.74683 4.53458C9.07653 4.72323 9.34631 4.77083 9.63194 4.49932C9.64779 4.48345 9.66542 4.46935 9.68483 4.46053C10.792 4.01799 11.3827 3.36037 11.2699 2.00985C11.1747 0.855024 12.2025 0.0545845 13.4032 0.0492953C16.159 0.0369537 18.9129 0.0369537 21.6687 0.0492953C22.9082 0.0545845 23.8849 0.914972 23.8232 2.14913C23.7685 3.24048 24.1071 3.84522 25.0944 4.3283C25.7344 4.64213 26.1399 4.6721 26.7359 4.30009C28.2328 3.36742 29.3241 3.67772 30.1968 5.19926C31.4786 7.43309 32.7586 9.66871 34.0333 11.906C34.8197 13.2866 34.5553 14.4643 33.1694 15.1854C32.4184 15.5768 32.2085 16.0263 32.1891 16.8603C32.1662 17.8371 32.406 18.4012 33.3122 18.8579C34.5341 19.4732 34.7915 20.6914 34.1074 21.9009C32.7728 24.2564 31.4293 26.6066 30.0752 28.9533C29.3664 30.1822 28.1745 30.5454 26.9897 29.789C26.2122 29.2918 25.6462 29.2654 24.8229 29.7714C24.0824 30.2263 23.802 30.6546 23.8373 31.5115C23.9008 33.0736 23.0086 33.9023 21.4307 33.904C18.8301 33.9076 16.2295 33.9076 13.6271 33.904C12.0615 33.9023 11.1641 33.0613 11.2346 31.4974C11.2751 30.63 11.06 30.0693 10.212 29.8031C10.0692 29.759 9.92987 29.6674 9.81705 29.5651C9.39039 29.1807 8.97779 29.179 8.53705 29.5439C8.3872 29.6691 8.20031 29.7502 8.02572 29.8454C6.87972 30.4607 5.71253 30.1751 5.06016 29.0555C3.6532 26.6401 2.26209 24.2141 0.892164 21.7775C0.280386 20.6897 0.588905 19.4432 1.70676 18.8878C2.62179 18.433 2.92327 17.8723 2.88098 16.8515C2.8475 16.0211 2.63942 15.5627 1.89365 15.1766C0.534313 14.4731 0.250386 13.29 1.00853 11.9572C2.32557 9.64226 3.65853 7.33612 4.97202 5.01943C5.41105 4.24543 6.0475 3.81877 7.21646 3.76588H7.22002ZM27.3935 25.1203C28.0934 23.8968 28.7722 22.7067 29.4599 21.5043C29.3065 21.4037 29.2201 21.335 29.1231 21.2857C28.0688 20.7409 27.739 19.8911 27.8325 18.7151C27.9313 17.4738 27.8766 16.2168 27.8149 14.9703C27.7673 14.0129 28.0846 13.2989 28.8956 12.7982C29.0791 12.6853 29.2606 12.5689 29.4633 12.4437C28.7616 11.222 28.0864 10.0425 27.4041 8.85589C27.2736 8.90352 27.1837 8.91759 27.1131 8.96345C25.9901 9.70219 25.001 9.51004 23.9801 8.67782C23.289 8.11537 22.5008 7.59885 21.6705 7.29734C20.267 6.7878 19.4736 5.97149 19.6023 4.41998C19.6059 4.38825 19.5547 4.35122 19.5424 4.33359H15.4185C15.6582 5.9662 14.8243 6.77194 13.4332 7.285C12.6627 7.57063 11.8958 8.00078 11.2769 8.53678C10.1626 9.50471 9.06594 9.741 7.80713 8.89648C7.77891 8.87885 7.72424 8.89997 7.63609 8.90878C6.9749 10.0636 6.30142 11.2396 5.61557 12.4403C5.8589 12.5954 6.05987 12.7241 6.26083 12.8546C6.99253 13.3306 7.2852 14.0023 7.26409 14.8733C7.23231 16.2749 7.23231 17.6783 7.26409 19.08C7.2835 19.951 6.98905 20.6227 6.25735 21.097C6.05631 21.2274 5.85535 21.3562 5.61379 21.5113C6.31024 22.7243 6.99253 23.9126 7.68542 25.1203C7.97105 24.9705 8.18091 24.8559 8.39602 24.7501C9.18054 24.364 9.9052 24.4751 10.6422 24.9317C11.7953 25.6475 12.9659 26.3369 14.1596 26.9822C14.9512 27.4089 15.4079 27.9994 15.4396 28.9022C15.4485 29.1384 15.4608 29.3747 15.4731 29.6268H19.627C19.627 29.3659 19.6235 29.149 19.627 28.9321C19.6482 27.9994 20.1225 27.4 20.9388 26.9646C22.1165 26.3351 23.2678 25.6563 24.3997 24.9476C25.1579 24.4715 25.9002 24.3605 26.7059 24.7642C26.9192 24.8717 27.1308 24.9829 27.3899 25.1186L27.3935 25.1203Z" fill="#FFA229"/>
</svg>
